<svg id="Calque_1" data-name="Calque 1" xmlns="http://www.w3.org/2000/svg" viewBox="0 0 732.54 271.26"><defs><style>.cls-1{fill:#7c88dd;}.cls-2{fill:#65d198;}</style></defs><path class="cls-1" d="M251.85,541l-67-64.89V541H165.51v-125h19.34V468.1l56.63-52.17h27.15l-62.54,56.19L278.69,541Z" transform="translate(-163.09 -326.96)"/><path class="cls-1" d="M366.35,541l-59.79-55.19V541H287.22v-125h58.66c27.29,0,45.59,13.36,45.59,37.66,0,24.68-16.73,37-44.13,37H336.91L394,541Zm-59.79-67.11h40.81c14.42,0,24.32-6.41,24.32-20.27,0-13.58-9.9-20.26-24.32-20.26H306.56Z" transform="translate(-163.09 -326.96)"/><path class="cls-1" d="M451.18,487.12l-54.57-71.19h23.12l41.14,53.17L502,415.93h23.11L470.5,487.12v53.74H451.18Z" transform="translate(-163.09 -326.96)"/><path class="cls-1" d="M582.1,542.48c-20.32.06-41.4-5.66-56-14.86l10.42-15A91.72,91.72,0,0,0,582.92,525c17.46-.15,29.28-6.78,29.53-18.18.25-10.49-6.79-14.38-25.14-18.61l-16.51-3.77c-26.77-6.07-39.14-17.23-39.24-35.63-.11-20.31,20.34-34.16,47.92-34.32a94.26,94.26,0,0,1,48.78,13.39l-9.81,15c-11-6.75-23.7-11-37.19-10.92-17.21.17-29.18,6.27-29.07,17.39.1,9.67,7.83,14.45,24.26,18.2l17.63,4c26.59,6,38.24,16.15,38.34,35.21.1,21.23-20.44,35.65-50.32,35.75Z" transform="translate(-163.09 -326.96)"/><path class="cls-1" d="M683.39,433.57H639.7l-.11-17.64H746.11v17.64H702.5V541H683.39Z" transform="translate(-163.09 -326.96)"/><path class="cls-1" d="M454.92,377.62h0c-1.14-.12-7-1-14.64-7.83-13.67-12.15-37.62-16.12-56.92-.14-7.11,5.89-14.66,8.91-21.62,9.07-7-.16-14.22-3.18-21.35-9.07a41.73,41.73,0,0,0-55.38,0c-7.13,5.89-14.31,8.91-21.34,9.07-7-.16-14.5-3.18-21.62-9.07-19.31-16-43.25-12-56.93.14-7.65,6.81-13.49,7.71-14.63,7.83h0a6.34,6.34,0,0,0,0,12.67l.1,0c1.4,0,11.19-.56,22.94-11,6.71-6,23.81-13.61,40.45.16,9.49,7.85,19.88,11.84,29.69,12,9.85-.18,19.92-4.17,29.41-12,6.75-5.58,13.52-7.65,19.62-7.73,6.11.08,12.88,2.15,19.62,7.73,9.49,7.85,19.57,11.84,29.42,12,9.81-.18,20.22-4.17,29.69-12,16.64-13.77,33.74-6.12,40.44-.16,11.76,10.47,21.57,11,22.95,11l.1,0a6.34,6.34,0,0,0,0-12.67Z" transform="translate(-163.09 -326.96)"/><path class="cls-1" d="M454.92,345.46h0c-1.14-.12-7-1-14.64-7.83-13.67-12.15-37.62-16.12-56.92-.14-7.11,5.89-14.66,8.91-21.62,9.07-7-.16-14.22-3.18-21.35-9.07a41.73,41.73,0,0,0-55.38,0c-7.13,5.89-14.31,8.91-21.34,9.07-7-.16-14.5-3.18-21.62-9.07-19.31-16-43.25-12-56.93.14-7.65,6.81-13.49,7.71-14.63,7.83h0a6.34,6.34,0,0,0,0,12.67l.1,0c1.4,0,11.19-.56,22.94-11,6.71-6,23.81-13.61,40.45.16,9.49,7.85,19.88,11.83,29.69,12,9.85-.18,19.92-4.16,29.41-12,6.75-5.58,13.52-7.65,19.62-7.73,6.11.08,12.88,2.15,19.62,7.73,9.49,7.85,19.57,11.83,29.42,12,9.81-.18,20.22-4.16,29.69-12,16.64-13.77,33.74-6.13,40.44-.16,11.76,10.47,21.57,11,22.95,11l.1,0a6.34,6.34,0,0,0,0-12.67Z" transform="translate(-163.09 -326.96)"/><path class="cls-2" d="M812.05,545.06l-.94.18-.17-.6-1.5.34-1.12-.44-.73-.07-1.11-.46-.15-.09-1.68-.3-.71-1.08-.71.25-.51-.92-1.27.22-1.27-.55-.12-.38-1.44-.58-1.06-.6-.48,0-1.24-.43-.85-.82-.84-.27-.83-.65-.45-.29-.44.09-1.58-.89-.42-.32-1.18-1.1-.79-.15-.59-.93-.21.2-.95-.57-1-1.15H785l-.74-.61-.35-1-1.3-1-.72.13-.13-1.41-.88-.46-1.26-.47.09-.48-1.24-1.07-.66-.31-.26-.51-.45-1.48-1-.15-.8-.73-.23-.54-1-.75-.2-1.14-.58-.76-.94-.39,0-1-.73-1.36-.91,0,0-1.18-1.27-1-.3-.44.09-.63-1-.83-.27-1-.44-.66-.44-1,0-.85-.79-.87-.59-.87-.39-1.06-.56-1.27.22-.31-.73-1.46-.53-.32-.32-1.29-.3-.33-.1-1.67-.09-.15.12-1.68-.45-.35-.81-.92,0-1.32-.4-.55-.2-.74.58-.94-.75-1.32.23-1.32,0-.95-.7-.57-.12-1.14-.1-1.14-.09-.57-.08-.57-.25-1.72.72-.19-.8-1.53.17-1.15.38-1.92-.36-.2.42-1.16.24-1.34.06-.39-.11-1.15.28-1.53.11-.19-.65-1.72.9-.95-.62-.57.74-1.33-.4-.57,1-.56V466l-.17-.36.23-.75.43-1.31.65-.74-.12-1.3-.09-.92.87-.34.31-.91-.25-1.47,1.11-.9.16-.9v-.31l.76-1.46.58-.5.21-.87-.16-1.25,1-.85.44-.86.64-1-.11-.84.86-.83-.09-.06,1.08-1.59.7-.81.33,0,.15-1,.74-.6.56-.78.37-.77.58-1,.78-1,.8-.75.61-.73.24-.73.63-.92.84-.33.26-1.08,1.24-.31.29-1.07,1.07-.29.88-1.05.13-.84.71.12,1.3-.63.34-1.39,1.13-.23.55-.22,1-1.16.19-.58H788l.2-.56,1.18-.73,1-.35.81-.52.43-.7L792,424l1-.3,1.41-.28.65-.84.66-.07,1-.44.86-1.19.68-.22,1.25-.59.5.19.5-.37,1.08-.94.71.23,1.47-.33.52-.13.91-.88.73-.49.91-.08,1.5-.46,1.12.32.93-.62.17.35,1.13-1,.75.38,2.38-.29,1.64,0,.75-.18.89.91.65.46L820,417l.1,1.06.76,1.15.65.84.33.32v1.12l-.19,1.52v1.68l-.51.12-.26,1.6-.55.37-.66,1.06-.55-.19-1.2.65-.49.54-2.24.79-.75-.18-.93-.17-.93.24-1.12.26-.92.27-1.1.28-.53,1.07-.9-.06-1.08.34-1.09,0-.88.57-.3.19-.87,1-.66,0-1.43.81-1,.26-.64.28-.64.86-.62.11-1,1.09-.8-.05-.6.92-1.16.17-.57,1.15h-.38l-1.51.4-.54.61-.92,1-.72.26-.51,1-.3.66-1.06.67-.29.49-.46.89-1.4.33-.63,1.29-.62.54-.41.94-.58.75-.2.76-.56.2-.74,1.55-.91,0,.06,1.37-.89.43.08,1-.47,1.22-1,.26-.64.85,0,1.23-.61.86-.4.68.19.88-.55.69-.35,1.46-.91.89.25.33-.1,1.29-.67,1.11-.08.91-.25.73-.42.36,0,1.12V470l-.95,1.13.6,1.33-.53.18-.13,1.52-.49.76.48,1.33-.27.57-.06.77,0,1.34-.22.38-.19,2.49.41.76-.34.77.83.76-.31.95.1,1.14-.08,1.33-.06.56.91,1.52-.22.75.37.74-.37.55.4,1.12,0,1.31,1,1.11.26.54-.1,1.29.11.33.89,1.28-.06.9,0,.88,1.12.69-.19.5.2,1.44,1,.67-.15.66.63.84.84,1,.27,1,.3.82.31.61.7.42.53,1.37.73,1,.75.2.76,1,.58.95,0,.35,1,.54,0,1.1.64.52,1.41.89.47,1.07.1.28,1.45,1.05.51-.12.7.64.53,1.19.35.23,1.12.78.56.59,1.15.76.58,0,.78.54.41.72,1.38.7.62.88.43.1,1,.28,1.41.45.28.43,1,.62,1.25.21.86.58.3.19,1.46.93.51,0,.51.32,1.47.31.34.68,1.48.27.92.07.92-.14.74,0,.92.4,1.66.61.86.54,1,.28.55.19,1.22.87.36.94-.14,1.21.89.3v1.49l.38,1.7-1,.93.23,1.09-.84.27-.76,1.33-.68.1-.77,1.15-.45-.12-.51.91-1.7-.37-1.47.41Zm26.44.09-.13-.53-1.22.11-.77-1.14-1-.11-.38-1-.08-1.22-.91-.51.37-1.13v-2.08l-.19-.53L835,536l.05-.83.75-.56.84-.29.35-1.14.42-.28,1.44-.73,1.65-.42h1.32l.93.35.54-.63.92-.45,1.29-.47.53.47.71-.88.89,0,.7-.15.89-.36,1.06-.95.87.19,1.44-1,.09.16.84-1,1.61-.26.25-.09,1.4-1.05.81.07.42-.51.79-1.3.78-.54.39.21.76-1.33,1.14.18.74-1.17.54-.61.72,0L865,520l.89-.84-.08-.85.86-.86,1.24-.88.45-.31.45-.71.62-.34,1-1.11.4-.94v-.75l.76-.95.75-.77.16-.78.53,0,1.27-.8-.26-1.58.67-.82,1-.82.26-.65.44-.27-.15-1.42,1.17-.86.2-.68v-.68l.94-1.45-.43-.32.72-1.08.31-.9.68-.52-.1-1.67.26-.15.44-1.69-.15-.35.59-1.12-.37-.55.37-1.7,0-.17.34-1.52.7-.75-.27-.56.09-1.33.08-.76.06-.76,0-1.14-.16-1.15-.19-2.1.54-.58-.23-.95-.06-1.34.3-1.15-.48-.57.27-1.15-.51-.37-.53-1.14,0-.75-.37-1.71.37-.55-.41-1.31-.62-.17-.25-1.69.31-.15-.48-1.68-.3-.91-.32-.71,0-.7-.55-.7-.17-1.07L877,459.3l.18-.87-1-1.24-.43-.86-.06-.84-.46-.65-.47-.83-.3-.24-.89-1.58-.33-.8-.91-.61-.17-.59-.18-.58-1-.95-1-.56-.22-.93-1-.35.14-1.49-.64-.71-1-.31-.28-.69L865.6,443l.07-.47-1.09-1.22-.71.13-.34-1-.93-.42-.55-1.17-1.53-.39-.38-.57L859,437.1l-.6.23-1-.72-.42-.32-1-.49-.64-.48-1-.66-.46-.83-1.43-.06-.66-.22-.68-1-.88-.38-.49.2-.89-1.12-1.09.24-.9-.32-1.48-.88-.53-.29-.53.11-1.5.13-.73-.81-.93-.21-.75-.4-2.43.17-.68-.15-.82-.66-.17-.57-1.23-.86v-.57l-1-.64.25-1.64-1-.73v-1.52l.39-1.13.72-1.27-.11-.65,1.15-.19.86-.87.57-.95.84-.27.32-.72,1.51-.2,1.25.54,1.43-.28,1.14,1,1.13-.17,1.13,0,.36.24,1.31.06.73.84,1.5.48.34-.47.72,1.07,1.29-.44.9.33,1.28.73.7.36h.5l1.07.58,1.07,1,1.06-.16.29.23,1.43,1,.65-.12.46,1,1,.29,1.21.49.24.5,1,.12.8,1.29,1.18,0L867,427l1.35.18v.95l1.53-.19v1l1.33.41.35.8.54.63,1.1.25.9,1,.32,1,1.08.28.49.87.86.68.47.89,1,.7.26.14,1,1.29,0,.73,1.19,0,.6.94.59,1.33.39.38.18.58.56,1.36.35.21,1.11.8,0,1.18,1.28,1,.5.63.1.63.47,1,.85,1-.12.84.62.28.43,1.05,0,.87.6,1.06,1,1.07-.39.88.36.7.73.51.34.9.71,1.09.31,1.29-.47.53.66,1.3.66.73-.32.35.82,1.31-.35,1.32,0,.93.2.37.19.75L894,469l.93,1.52-.43.19.33,1.14.31,1.15.1,1.15.09.57.27,1.34-.7.58.62,1.15,0,.77-.55,1v1.92l.17.77.34,1.72.15,1-.06.19-.46,1.72-.48.76.28.38.08,1.34-.33,1.14-.34.75.23.95-.56,1.32.2.18-.2,1.7-.79.36,0,.93-.24,1.31.32.34-1,1.5-.28,1.1.47.34-.5,1.29-.32.33-.34,1.47-.53.31-.55,1.46.2.31-1,.88.18,1.63-.79.48-.42.48-.82.85-.06,1.22-.65,1,.1,1-.87.44-.87.62-.51,1-.13.41-.34,1.18-.35,1-.93.21-1,.77-.57,1.14-.59,1.14-.21.56-1,.35.15.74-1,1.29-.64-.05-.27.7-1,1.46-.47.49-1.25.67-.11.09-.7,1-1.22,1.08-1.11.63-.73.8-.36,1-1.14-.18-1,.58-.38.57-.77,1.33-1,.54-.41.35-1.37.52-.8-.06-1,1.08-.82.68-.06-.1-1.41.27-1,.45-.66,1.21-.85-.15-1.06.23-.1,1.16-1.44-.37-.88.76-.89.75-1.08-.23-.32.34-.7.13-1.48.89-.91.49-.34-.48-.92.65-1.49-.12-.74.63-1.11.23-1.13.6h-.17l-2,.11-1.29,0Z" transform="translate(-163.09 -326.96)"/><path class="cls-1" d="M163.09,579.64c0-7.39,5.91-13.19,13.61-13.19a13.69,13.69,0,0,1,10.63,4.82l-4.28,3.34a8.08,8.08,0,0,0-6.36-3,8,8,0,1,0,0,16,8.05,8.05,0,0,0,6.43-3.05l4.34,3.27a13.65,13.65,0,0,1-10.76,5C169,592.79,163.09,587,163.09,579.64Z" transform="translate(-163.09 -326.96)"/><path class="cls-1" d="M193.66,566.93h5.57l0,20.3H212v5.06H193.66Z" transform="translate(-163.09 -326.96)"/><path class="cls-1" d="M217.86,566.93h20V572H223.4v4.43l10.16,0v4.89H223.4v5.88h14.5v5.07h-20Z" transform="translate(-163.09 -326.96)"/><path class="cls-1" d="M255.4,565.84l14.54,26.44h-6l-2.57-4.78h-12.1l-2.55,4.78h-6.08Zm3.54,17.06-3.6-6.7-3.57,6.7Z" transform="translate(-163.09 -326.96)"/><path class="cls-1" d="M274.58,566.93h5.51L293,584.08V566.93h5.54v25.36H293l-12.88-17.12v17.12h-5.57Z" transform="translate(-163.09 -326.96)"/><path class="cls-1" d="M305.51,596.24l3-4H306v-5.86h6v6.64l-3.86,5.14Z" transform="translate(-163.09 -326.96)"/><path class="cls-1" d="M329.35,579.64c0-7.39,5.91-13.19,13.62-13.19a13.68,13.68,0,0,1,10.62,4.82l-4.28,3.34a8.05,8.05,0,0,0-6.36-3,8,8,0,1,0,0,16,8,8,0,0,0,6.43-3.05l4.34,3.27a13.64,13.64,0,0,1-10.75,5C335.26,592.79,329.35,587,329.35,579.64Z" transform="translate(-163.09 -326.96)"/><path class="cls-1" d="M375.22,592.29l-9.72-10.61v10.61h-5.57V566.93H372c5.87,0,9.57,3,9.57,8.08s-3,7.55-8.48,7.73l9.54,9.55Zm-9.72-14.16h6.95c2.1,0,3.44-1,3.44-3.12s-1.34-3.1-3.44-3.1H365.5Z" transform="translate(-163.09 -326.96)"/><path class="cls-1" d="M388.84,566.93h20V572H394.38v4.43l10.16,0v4.89H394.38v5.88h14.5v5.07h-20Z" transform="translate(-163.09 -326.96)"/><path class="cls-1" d="M426.38,565.84l14.54,26.44h-6l-2.57-4.78h-12.1l-2.55,4.78h-6.08Zm3.53,17.06-3.6-6.7-3.57,6.7Z" transform="translate(-163.09 -326.96)"/><path class="cls-1" d="M448.22,572h-8.06l0-5.06h21.62V572H453.7v20.3h-5.48Z" transform="translate(-163.09 -326.96)"/><path class="cls-1" d="M467.58,566.93h20V572H473.11v4.43l10.16,0v4.89H473.11v5.88h14.5v5.07h-20Z" transform="translate(-163.09 -326.96)"/><path class="cls-1" d="M493.16,596.24l3-4h-2.47v-5.86h6v6.64l-3.86,5.14Z" transform="translate(-163.09 -326.96)"/><path class="cls-1" d="M533.76,592.29,524,581.68v10.61h-5.57V566.93h12.07c5.87,0,9.57,3,9.57,8.08s-3,7.55-8.48,7.73l9.54,9.55ZM524,578.13h7c2.1,0,3.44-1,3.44-3.12s-1.34-3.1-3.44-3.1h-7Z" transform="translate(-163.09 -326.96)"/><path class="cls-1" d="M547.38,566.93h20V572H552.92v4.43l10.16,0v4.89H552.92v5.88h14.5v5.07h-20Z" transform="translate(-163.09 -326.96)"/><path class="cls-1" d="M571.77,579.64c0-7.39,5.91-13.19,13.62-13.19A13.65,13.65,0,0,1,596,571.27l-4.27,3.34a8.09,8.09,0,0,0-6.37-3,8,8,0,1,0,0,16,8.07,8.07,0,0,0,6.44-3.05l4.34,3.27a13.65,13.65,0,0,1-10.76,5C577.68,592.79,571.77,587,571.77,579.64Z" transform="translate(-163.09 -326.96)"/><path class="cls-1" d="M609.18,582l-10.67-15.05h6.6l6.84,9.86,6.85-9.86h6.6L614.73,582v10.27h-5.55Z" transform="translate(-163.09 -326.96)"/><path class="cls-1" d="M626.59,579.64c0-7.39,5.91-13.19,13.61-13.19a13.65,13.65,0,0,1,10.62,4.82l-4.27,3.34a8.08,8.08,0,0,0-6.36-3,8,8,0,1,0,0,16,8.05,8.05,0,0,0,6.43-3.05l4.34,3.27a13.65,13.65,0,0,1-10.76,5C632.5,592.79,626.59,587,626.59,579.64Z" transform="translate(-163.09 -326.96)"/><path class="cls-1" d="M657.16,566.93h5.57l0,20.3h12.83v5.06H657.16Z" transform="translate(-163.09 -326.96)"/><path class="cls-1" d="M681.36,566.93h20V572H686.9v4.43l10.16,0v4.89H686.9v5.88h14.5v5.07h-20Z" transform="translate(-163.09 -326.96)"/><path class="cls-1" d="M707,596.24l2.95-4h-2.46v-5.86h6v6.64l-3.85,5.14Z" transform="translate(-163.09 -326.96)"/><path class="cls-1" d="M747.55,592.29l-9.73-10.61v10.61h-5.57V566.93h12.08c5.87,0,9.57,3,9.57,8.08s-3,7.55-8.48,7.73l9.54,9.55Zm-9.73-14.16h7c2.1,0,3.44-1,3.44-3.12s-1.34-3.1-3.44-3.1h-7Z" transform="translate(-163.09 -326.96)"/><path class="cls-1" d="M761.17,566.93h20V572H766.7v4.43l10.16,0v4.89H766.7v5.88h14.5v5.07h-20Z" transform="translate(-163.09 -326.96)"/><path class="cls-1" d="M788.21,566.93H800c5.87,0,9.53,3.38,9.53,8.47s-3.31,8.46-9.21,8.46h-6.55v8.43h-5.57Zm11.85,12c2.5,0,3.8-1.44,3.8-3.52s-1.3-3.49-3.8-3.49h-6.28v7Z" transform="translate(-163.09 -326.96)"/><path class="cls-1" d="M816.14,566.93h20V572H821.67v4.43l10.16,0v4.89H821.67v5.88h14.51v5.07h-20Z" transform="translate(-163.09 -326.96)"/><path class="cls-1" d="M853.68,565.84l14.53,26.44h-6l-2.57-4.78h-12.1L845,592.28H839Zm3.53,17.06-3.6-6.7L850,582.9Z" transform="translate(-163.09 -326.96)"/><path class="cls-1" d="M875.51,572h-8l0-5.06h21.62V572h-8v20.3h-5.49Z" transform="translate(-163.09 -326.96)"/></svg>